HIERARCHY
ROOT hip
{
  OFFSET 0.0 0.0 0.0
  CHANNELS 6 Xposition Yposition Zposition Zrotation Yrotation Xrotation
  JOINT torso
  {
    OFFSET 0.0 0.0 0.0
    CHANNELS 3 Zrotation Xrotation Yrotation
    JOINT neck
    {
      OFFSET -8.600829999999974 327.7417449999999 60.895874000000276
      CHANNELS 3 Zrotation Xrotation Yrotation
      JOINT head
      {
        OFFSET 0.7211610000001087 266.848846 239.12060599999995
        CHANNELS 3 Zrotation Xrotation Yrotation
        End Site
        {
          OFFSET 0.0 0.0 0.0
        }
      }
    }
    JOINT left_collar
    {
      OFFSET -8.600829999999974 327.7417449999999 60.895874000000276
      CHANNELS 3 Zrotation Xrotation Yrotation
      JOINT left_upper_arm
      {
        OFFSET -122.29599000000002 -5.21875 31.800903999999946
        CHANNELS 3 Zrotation Xrotation Yrotation
        JOINT left_forearm
        {
          OFFSET -195.94708199999997 63.423126000000025 226.99352999999996
          CHANNELS 3 Zrotation Xrotation Yrotation
          JOINT left_hand
          {
            OFFSET -232.19226099999992 28.282164999999964 80.86950699999989
            CHANNELS 3 Zrotation Xrotation Yrotation
            End Site
            {
              OFFSET 0.0 0.0 0.0
            }
          }
        }
      }
    }
    JOINT right_collar
    {
      OFFSET -8.600829999999974 327.7417449999999 60.895874000000276
      CHANNELS 3 Zrotation Xrotation Yrotation
      JOINT right_upper_arm
      {
        OFFSET 168.41261300000002 -11.913361000000066 -9.389160000000174
        CHANNELS 3 Zrotation Xrotation Yrotation
        JOINT right_forearm
        {
          OFFSET 213.49279800000005 104.82293699999997 83.52258300000017
          CHANNELS 3 Zrotation Xrotation Yrotation
          JOINT right_hand
          {
            OFFSET 222.067185 62.005675999999994 -110.52026300000034
            CHANNELS 3 Zrotation Xrotation Yrotation
            End Site
            {
              OFFSET 0.0 0.0 0.0
            }
          }
        }
      }
    }
  }
}
MOTION
Frames: 9
Frame Time: 0.01
-438.0575168854867 111.53045239646626 1455.0590069143182 3.7388363679152827 -20.012651829656786 -16.42497275005976 -2.7313117560529294 10.050355199456785 0.540284354529076 -2.054125065328807 -6.366779538154124 1.8786457818133202 0.0 0.0 0.0 0.38572834424208363 0.045419502752721205 1.1895211395553964 52.91567848030016 41.35292319875429 25.504769156246795 28.914747069514853 10.862906603872505 -5.599270984938244 0.0 0.0 0.0 -7.098186278102276 -0.03256544852168178 2.7395081288983945 -70.62832786754655 18.739934629022077 -21.97214020974601 -29.708957219630264 -14.311937467884187 -6.715635222771492 0.0 0.0 0.0
-438.9780588124192 111.54650053335618 1454.2880386505717 3.808711999486979 -20.058368864964233 -16.25061087453531 -2.7661457150109063 10.076165599088425 0.5438243508982977 -2.036271690838679 -6.366700132739766 1.8624584151653345 0.0 0.0 0.0 0.38283553693056765 0.04916065832208149 1.0925569074701926 52.87554964510892 41.36212643732391 25.418310571482735 28.852416359488824 10.838978085713002 -5.6060187872524425 0.0 0.0 0.0 -7.127540309577278 -0.046460284396008335 2.642499371155265 -70.6276529922803 18.73086808692235 -22.017058517623354 -29.764585511429097 -14.339054902001832 -6.66983414469568 0.0 0.0 0.0
-439.9097638175609 111.56535972678164 1453.5017719476862 3.879709635585598 -20.104672072241335 -16.07593990586008 -2.8012881103705474 10.102464426551458 0.5473804173226643 -2.020215170790086 -6.3656197422731475 1.8478945855874143 0.0 0.0 0.0 0.37979767926273666 0.052753972275202614 0.9979427628365003 52.83576832463899 41.37238850822131 25.329621730914006 28.789482086070652 10.814353159498062 -5.610041647632997 0.0 0.0 0.0 -7.1573076465487135 -0.06025855241615242 2.546701124499587 -70.6276752072815 18.72201285932801 -22.061337767931306 -29.81669809271883 -14.364477594044757 -6.628431394768874 0.0 0.0 0.0
-440.85177926802777 111.58704952382467 1452.6918916536497 3.952266977847933 -20.151795140528208 -15.90176494609904 -2.836644514265097 10.129250819475796 0.5509425668586148 -2.0067728022238773 -6.36306351962359 1.8356926954209702 0.0 0.0 0.0 0.3765276346011655 0.056116177990322945 0.9070052680148999 52.79685564031884 41.384132641500756 25.238455350143095 28.72611194788068 10.788900412325447 -5.61009445893076 0.0 0.0 0.0 -7.1874002621898985 -0.07384352341067882 2.4529619947280805 -70.62892716759515 18.713519797500542 -22.10453410511831 -29.86443448059564 -14.387831373182909 -6.592785599585013 0.0 0.0 0.0
-441.80313422282114 111.61137631732893 1451.84958677882 4.0268500124153075 -20.200025205610178 -15.728912549681572 -2.872116542221547 10.15653157804284 0.5545005227560384 -1.9967471963448822 -6.358556675084234 1.8265778265365644 0.0 0.0 0.0 0.37295051479894803 0.05916882849674929 0.8210293510940855 52.75932897863069 41.39776798040241 25.1445986125964 28.662491378136924 10.762511968970841 -5.605012622301814 0.0 0.0 0.0 -7.2177396614423746 -0.08710080468421792 2.362106318965021 -70.6319575547116 18.705554388407666 -22.146136281370403 -29.90702509005966 -14.408787982446478 -6.56416271730419 0.0 0.0 0.0
-442.7626243147081 111.63790180682099 1450.965841038732 4.103932134247938 -20.24969340020695 -15.55823226027906 -2.907598584448063 10.184315520497918 0.558043384239463 -1.9909022581766553 -6.351638493374793 1.8212399989480677 0.0 0.0 0.0 0.36900809709688026 0.06184099563531057 0.7412265526332454 52.72369281738218 41.41367434792344 25.0478976111451 28.59882972872515 10.735112871632452 -5.593756027434523 0.0 0.0 0.0 -7.248255886871342 -0.09992037381350062 2.274919303198956 -70.63731566494859 18.698294993748334 -22.18556595326052 -29.9438223458558 -14.427077418256731 -6.543687218240817 0.0 0.0 0.0
-443.72870442902956 111.6659178499997 1450.0317234206059 4.183973937783369 -20.301164188290585 -15.390593574992058 -2.942975552353917 10.212607522923866 0.5615594069650738 -1.9899385955023259 -6.3418756700087 1.820311899519709 0.0 0.0 0.0 0.36466186545007795 0.06407172504462609 0.6687014631680178 52.690430864498374 41.43218810127554 24.948280994759934 28.535365744737184 10.706669130836689 -5.575448037731693 0.0 0.0 0.0 -7.278886062418985 -0.11219891848878152 2.192129980821531 -70.64553579691788 18.691930263042106 -22.222182497787276 -29.974330777790783 -14.442499649251754 -6.53229400546284 0.0 0.0 0.0
-444.69939589651716 111.69442902672789 1449.0386667071662 4.2674045062639365 -20.354823860476074 -15.226877613820731 -2.9781218464352595 10.241402495097109 0.5650359178360099 -1.9944691196400457 -6.328874468315051 1.8243467747082442 0.0 0.0 0.0 0.35989443688116457 0.06581212490287651 0.6044171733698903 52.659999741635 41.453589657178384 24.845781657831456 28.472372077436795 10.677194090751017 -5.549407854630074 0.0 0.0 0.0 -7.309572596877008 -0.12384247059892255 2.114392114734866 -70.65712189118207 18.68665571464761 -22.25529265084191 -29.998234953732563 -14.454935407194865 -6.5306827887869145 0.0 0.0 0.0
-445.6722143863218 111.72214387993365 1447.978722431071 4.354604831330199 -20.411068443332724 -15.06796333223494 -3.012901592925426 10.270679409904949 0.5684593667574349 -2.0049957444708166 -6.312291250249951 1.8337973132494945 0.0 0.0 0.0 0.3547093032735129 0.0670269860551845 0.5491610698663753 52.63282430577797 41.47809321552327 24.740555227195223 28.41015860899398 10.646752826619654 -5.515174935940998 0.0 0.0 0.0 -7.340261152874897 -0.13476926505790515 2.042263594532676 -70.67253281707019 18.682669520863833 -22.284164971268865 -30.01542408202101 -14.464355745213387 -6.539276731509972 0.0 0.0 0.0
